<svg xmlns="http://www.w3.org/2000/svg" version="1.1" xmlns:xlink="http://www.w3.org/1999/xlink" xmlns:svgjs="http://svgjs.dev/svgjs" width="1500" height="1500" viewBox="0 0 1500 1500"><rect width="1500" height="1500" fill="#ffffff"></rect><g transform="matrix(0.6666666666666666,0,0,0.6666666666666666,249.39393939393938,632.2359776059028)"><svg viewBox="0 0 396 93" data-background-color="#ecf4ef" preserveAspectRatio="xMidYMid meet" height="352" width="1500" xmlns="http://www.w3.org/2000/svg" xmlns:xlink="http://www.w3.org/1999/xlink"><g id="tight-bounds" transform="matrix(1,0,0,1,0.2400000000000091,0.17068501129705282)"><svg viewBox="0 0 395.52 92.6586299774059" height="92.6586299774059" width="395.52"><g><svg viewBox="0 0 622.0973362775221 145.7389939625525" height="92.6586299774059" width="395.52"><g></g><g transform="matrix(1,0,0,1,226.5773362775221,0.3625348108521109)"><svg viewBox="0 0 395.52 145.0139243408483" height="145.0139243408483" width="395.52"><g id="textblocktransform"><svg viewBox="0 0 395.52 145.0139243408483" height="145.0139243408483" width="395.52" id="textblock"><g><svg viewBox="0 0 395.52 145.0139243408483" height="145.0139243408483" width="395.52"><g transform="matrix(1,0,0,1,0,0)"><svg width="395.52" viewBox="1.71 -35.4 127.77 46.849999999999994" height="145.0139243408483" data-palette-color="url(#bc65a2c0-aa2d-462c-ba0e-f3e078dccda4)"></svg></g></svg></g></svg></g></svg></g><g transform="matrix(1,0,0,1,0,0.3625348108521109)"><svg viewBox="0 0 145.03121652071428 145.0139243408483" height="145.0139243408483" width="145.03121652071428"><g><svg xmlns="http://www.w3.org/2000/svg" xmlns:xlink="http://www.w3.org/1999/xlink" version="1.1" x="0" y="0" viewBox="0 0 99.99992306523873 99.988" enable-background="new 0 0 100 100" xml:space="preserve" height="145.0139243408483" width="145.03121652071428" class="icon-icon-0" data-fill-palette-color="accent" id="icon-0"></svg></g></svg></g></svg></g><defs></defs><mask id="1a32e26b-5c84-43e2-bd92-48f6fb14da48"><g id="SvgjsG2913"><svg viewBox="0 0 395.52 92.6586299774059" height="92.6586299774059" width="395.52"><g><svg viewBox="0 0 622.0973362775221 145.7389939625525" height="92.6586299774059" width="395.52"><g><rect width="13.07750535142762" height="145.7389939625525" x="179.26552372340439" y="0" fill="white" opacity="1" stroke-width="0" stroke="transparent" fill-opacity="1" class="rect-yte-0" rx="1%" id="SvgjsRect2912" data-palette-color="url(#bc65a2c0-aa2d-462c-ba0e-f3e078dccda4)"></rect></g><g transform="matrix(1,0,0,1,226.5773362775221,0.3625348108521109)"><svg viewBox="0 0 395.52 145.0139243408483" height="145.0139243408483" width="395.52"><g id="SvgjsG2911"><svg viewBox="0 0 395.52 145.0139243408483" height="145.0139243408483" width="395.52" id="SvgjsSvg2910"><g><svg viewBox="0 0 395.52 145.0139243408483" height="145.0139243408483" width="395.52"><g transform="matrix(1,0,0,1,0,0)"><svg width="395.52" viewBox="1.71 -35.4 127.77 46.849999999999994" height="145.0139243408483" data-palette-color="url(#bc65a2c0-aa2d-462c-ba0e-f3e078dccda4)"><path d="M25.39-23.19L25.39-20.75 20.41-20.75Q20.97-19.85 21.36-18.77 21.75-17.7 21.75-16.26L21.75-16.26Q21.75-13.77 20.39-12 19.02-10.23 16.78-9.28 14.55-8.33 11.94-8.33L11.94-8.33Q11.69-8.33 11.45-8.33 11.21-8.33 10.96-8.35L10.96-8.35Q10.64-7.84 10.53-7.25 10.42-6.67 10.42-6.15L10.42-6.15Q10.42-5.69 10.47-5.37 10.52-5.05 10.55-5L10.55-5 11.25-4.93Q13.01-4.76 15.2-4.44 17.38-4.13 19.42-3.42 21.46-2.71 22.78-1.42 24.1-0.12 24.1 2L24.1 2Q24.1 4.37 22.36 6.53 20.63 8.69 17.69 10.07 14.75 11.45 11.11 11.45L11.11 11.45Q6.64 11.45 4.17 9.41 1.71 7.37 1.71 4.35L1.71 4.35Q1.71 2.17 3 0.48 4.3-1.22 7.01-1.71L7.01-1.71Q6.74-2.49 6.62-2.83 6.49-3.17 6.49-4L6.49-4Q6.49-4.98 7.09-6.16 7.69-7.35 9.01-8.69L9.01-8.69Q6.52-9.25 4.66-11.22 2.81-13.18 2.81-16.21L2.81-16.21Q2.81-20.14 5.58-22.42 8.35-24.71 12.84-24.71L12.84-24.71Q14.62-24.71 16.15-24.18 17.68-23.66 18.65-23.19L18.65-23.19 25.39-23.19ZM16.99-16.55L16.99-16.55Q16.99-18.14 16.46-19.53 15.92-20.92 14.89-21.79 13.87-22.66 12.35-22.66L12.35-22.66Q10.25-22.66 8.92-21.03 7.59-19.41 7.59-16.5L7.59-16.5Q7.59-13.99 8.79-12.19 9.99-10.4 12.35-10.4L12.35-10.4Q14.6-10.4 15.8-12.21 16.99-14.01 16.99-16.55ZM19.8 3.34L19.8 3.34Q19.8 1.78 18.71 0.93 17.63 0.07 16.02-0.34 14.4-0.76 12.77-0.94 11.13-1.12 10.01-1.34L10.01-1.34Q7.84-0.56 7.02 0.78 6.2 2.12 6.2 3.34L6.2 3.34Q6.2 4.54 6.9 5.9 7.59 7.25 9.05 8.2 10.5 9.16 12.74 9.16L12.74 9.16Q15.14 9.16 16.7 8.2 18.26 7.25 19.03 5.9 19.8 4.54 19.8 3.34ZM37.13-32.35L37.13-32.35Q37.13-31.08 36.25-30.16 35.37-29.25 34.1-29.25L34.1-29.25Q32.83-29.25 31.92-30.16 31-31.08 31-32.35L31-32.35Q31-33.64 31.92-34.52 32.83-35.4 34.1-35.4L34.1-35.4Q35.37-35.4 36.25-34.52 37.13-33.64 37.13-32.35ZM39.69-1.95L39.69 0 27.95 0 27.95-1.95 30.39-2.1Q31.44-2.17 31.44-3.2L31.44-3.2 31.44-21.04 28-21.04 28-22.8 34.1-24.71 36.08-24.71 36.08-3.2Q36.08-2.73 36.39-2.44 36.69-2.15 37.13-2.1L37.13-2.1 39.69-1.95ZM66.79-23.19L66.79-20.75 61.81-20.75Q62.37-19.85 62.76-18.77 63.15-17.7 63.15-16.26L63.15-16.26Q63.15-13.77 61.79-12 60.42-10.23 58.19-9.28 55.95-8.33 53.34-8.33L53.34-8.33Q53.1-8.33 52.85-8.33 52.61-8.33 52.36-8.35L52.36-8.35Q52.05-7.84 51.94-7.25 51.83-6.67 51.83-6.15L51.83-6.15Q51.83-5.69 51.87-5.37 51.92-5.05 51.95-5L51.95-5 52.66-4.93Q54.41-4.76 56.6-4.44 58.78-4.13 60.82-3.42 62.86-2.71 64.18-1.42 65.5-0.12 65.5 2L65.5 2Q65.5 4.37 63.76 6.53 62.03 8.69 59.09 10.07 56.15 11.45 52.51 11.45L52.51 11.45Q48.04 11.45 45.58 9.41 43.11 7.37 43.11 4.35L43.11 4.35Q43.11 2.17 44.4 0.48 45.7-1.22 48.41-1.71L48.41-1.71Q48.14-2.49 48.02-2.83 47.9-3.17 47.9-4L47.9-4Q47.9-4.98 48.49-6.16 49.09-7.35 50.41-8.69L50.41-8.69Q47.92-9.25 46.06-11.22 44.21-13.18 44.21-16.21L44.21-16.21Q44.21-20.14 46.98-22.42 49.75-24.71 54.24-24.71L54.24-24.71Q56.03-24.71 57.55-24.18 59.08-23.66 60.05-23.19L60.05-23.19 66.79-23.19ZM58.39-16.55L58.39-16.55Q58.39-18.14 57.86-19.53 57.32-20.92 56.29-21.79 55.27-22.66 53.75-22.66L53.75-22.66Q51.66-22.66 50.32-21.03 48.99-19.41 48.99-16.5L48.99-16.5Q48.99-13.99 50.19-12.19 51.39-10.4 53.75-10.4L53.75-10.4Q56-10.4 57.2-12.21 58.39-14.01 58.39-16.55ZM61.2 3.34L61.2 3.34Q61.2 1.78 60.11 0.93 59.03 0.07 57.42-0.34 55.81-0.76 54.17-0.94 52.53-1.12 51.41-1.34L51.41-1.34Q49.24-0.56 48.42 0.78 47.6 2.12 47.6 3.34L47.6 3.34Q47.6 4.54 48.3 5.9 48.99 7.25 50.45 8.2 51.9 9.16 54.15 9.16L54.15 9.16Q56.54 9.16 58.1 8.2 59.66 7.25 60.43 5.9 61.2 4.54 61.2 3.34ZM101.9-33.54L101.9-31.4 98.99-31.2Q98.45-31.18 98.2-30.82 97.94-30.47 97.94-30.1L97.94-30.1 97.94-11.11Q97.94-4.96 94.66-2.08 91.37 0.81 85.1 0.81L85.1 0.81Q78.92 0.81 75.91-2.21 72.89-5.22 72.89-11.11L72.89-11.11 72.89-30.1Q72.89-30.47 72.64-30.82 72.38-31.18 71.84-31.2L71.84-31.2 69.18-31.4 69.18-33.54 81.9-33.54 81.9-31.4 79.05-31.2Q78.51-31.18 78.25-30.82 78-30.47 78-30.1L78-30.1 78-12.4Q78-9.47 78.65-7.25 79.31-5.03 81.14-3.78 82.98-2.54 86.44-2.54L86.44-2.54Q89.91-2.54 91.75-3.85 93.6-5.15 94.29-7.4 94.99-9.64 94.99-12.4L94.99-12.4 94.99-30.1Q94.99-30.47 94.71-30.82 94.43-31.18 93.89-31.2L93.89-31.2 91.03-31.4 91.03-33.54 101.9-33.54ZM129.48-12.4L129.48-12.4Q129.48-8.47 127.97-5.54 126.45-2.61 123.62-1 120.79 0.61 116.84 0.61L116.84 0.61Q115.93 0.61 114.89 0.49 113.86 0.37 113.12 0.26 112.39 0.15 112.39 0.15L112.39 0.15 112.39 7.59Q112.39 8.06 112.71 8.33 113.03 8.59 113.49 8.64L113.49 8.64 116.45 8.96 116.45 10.89 104.29 10.89 104.29 8.96 106.68 8.64Q107.73 8.57 107.73 7.59L107.73 7.59 107.73-20.56 104.29-20.56 104.29-22.19 110.44-24.1 112.39-24.1 112.39-21.61Q112.39-21.61 113.01-22.07 113.64-22.53 114.7-23.16 115.76-23.78 117.12-24.24 118.47-24.71 119.94-24.71L119.94-24.71Q122.52-24.71 124.68-23.18 126.85-21.66 128.16-18.9 129.48-16.14 129.48-12.4ZM124.48-11.69L124.48-11.69Q124.48-14.28 123.68-16.43 122.89-18.58 121.34-19.89 119.79-21.19 117.49-21.19L117.49-21.19Q116.25-21.19 115.08-20.83 113.91-20.46 113.15-20.08 112.39-19.7 112.39-19.7L112.39-19.7 112.39-2.49Q112.39-2.49 113.65-2.1 114.91-1.71 116.45-1.71L116.45-1.71Q119.2-1.71 120.97-3.13 122.74-4.54 123.61-6.82 124.48-9.11 124.48-11.69Z" opacity="1" transform="matrix(1,0,0,1,0,0)" fill="white" class="wordmark-text-0" id="SvgjsPath2909"></path></svg></g></svg></g></svg></g></svg></g><g transform="matrix(1,0,0,1,0,0.3625348108521109)"><svg viewBox="0 0 145.03121652071428 145.0139243408483" height="145.0139243408483" width="145.03121652071428"><g><svg xmlns="http://www.w3.org/2000/svg" xmlns:xlink="http://www.w3.org/1999/xlink" version="1.1" x="0" y="0" viewBox="0 0 99.99992306523873 99.988" enable-background="new 0 0 100 100" xml:space="preserve" height="145.0139243408483" width="145.03121652071428" class="icon-icon-0" data-fill-palette-color="accent" id="SvgjsSvg2908"><g fill="black"><path fill-rule="evenodd" clip-rule="evenodd" d="M47.102 0H52.886C61.224 0.642 67.928 2.917 73.876 5.95A977 977 0 0 1 44.623 35.202C41.654 31.356 38.409 28.27 31.402 28.923 24.554 29.561 19.394 35.712 19.337 42.475 19.244 53.575 31.973 59.901 41.318 53.714 43.773 52.089 46.026 49.336 48.259 47.103 54.917 40.444 61.628 33.63 68.256 26.939 73.727 31.866 78.962 37.481 84.452 42.971 85.026 43.545 86.757 44.887 86.766 45.119 86.787 45.622 83.195 48.857 82.799 49.251 78.764 53.286 74.67 57.412 70.569 61.151 67.724 55.169 58.004 53.047 51.729 56.854 47.895 59.18 45.443 62.914 45.283 68.092 45.062 75.217 50.138 81.412 57.183 82.139 66.95 83.148 70.918 76.17 75.693 71.397 83.735 63.355 92.087 54.972 99.988 47.434 100.296 63.826 94.605 75.648 86.6 83.958 78.583 92.28 67.921 98.938 52.885 99.988H47.101C33.078 98.757 22.273 93.176 14.543 85.445 6.814 77.715 1.225 66.916 0 52.887V47.102C0.812 33.583 7.182 22 14.709 14.544 22.682 6.645 33.328 1.089 47.102 0" fill="black"></path></g></svg></g></svg></g></svg></g><defs><mask></mask></defs></svg><rect width="395.52" height="92.6586299774059" fill="black" stroke="none" visibility="hidden"></rect></g></mask><linearGradient x1="0" x2="1" y1="0.5" y2="0.5" id="bc65a2c0-aa2d-462c-ba0e-f3e078dccda4"><stop stop-color="#ffa62e" offset="0"></stop><stop stop-color="#f71b3d" offset="1"></stop></linearGradient><rect width="395.52" height="92.6586299774059" fill="#000000" mask="url(#1a32e26b-5c84-43e2-bd92-48f6fb14da48)" data-fill-palette-color="primary"></rect><mask id="c475f70d-1a19-431e-b19d-a0493972c237"><g id="SvgjsG2923"><svg viewBox="0 0 395.52 92.6586299774059" height="92.6586299774059" width="395.52"><g><svg viewBox="0 0 622.0973362775221 145.7389939625525" height="92.6586299774059" width="395.52"><g></g><g transform="matrix(1,0,0,1,226.5773362775221,0.3625348108521109)"><svg viewBox="0 0 395.52 145.0139243408483" height="145.0139243408483" width="395.52"><g id="SvgjsG2922"><svg viewBox="0 0 395.52 145.0139243408483" height="145.0139243408483" width="395.52" id="SvgjsSvg2921"><g><svg viewBox="0 0 395.52 145.0139243408483" height="145.0139243408483" width="395.52"><g transform="matrix(1,0,0,1,0,0)"><svg width="395.52" viewBox="1.71 -35.4 127.77 46.849999999999994" height="145.0139243408483" data-palette-color="url(#bc65a2c0-aa2d-462c-ba0e-f3e078dccda4)"></svg></g></svg></g></svg></g></svg></g><g transform="matrix(1,0,0,1,0,0.3625348108521109)"><svg viewBox="0 0 145.03121652071428 145.0139243408483" height="145.0139243408483" width="145.03121652071428"><g><svg xmlns="http://www.w3.org/2000/svg" xmlns:xlink="http://www.w3.org/1999/xlink" version="1.1" x="0" y="0" viewBox="0 0 99.99992306523873 99.988" enable-background="new 0 0 100 100" xml:space="preserve" height="145.0139243408483" width="145.03121652071428" class="icon-icon-0" data-fill-palette-color="accent" id="SvgjsSvg2920"><g fill="white"><path fill-rule="evenodd" clip-rule="evenodd" d="M47.102 0H52.886C61.224 0.642 67.928 2.917 73.876 5.95A977 977 0 0 1 44.623 35.202C41.654 31.356 38.409 28.27 31.402 28.923 24.554 29.561 19.394 35.712 19.337 42.475 19.244 53.575 31.973 59.901 41.318 53.714 43.773 52.089 46.026 49.336 48.259 47.103 54.917 40.444 61.628 33.63 68.256 26.939 73.727 31.866 78.962 37.481 84.452 42.971 85.026 43.545 86.757 44.887 86.766 45.119 86.787 45.622 83.195 48.857 82.799 49.251 78.764 53.286 74.67 57.412 70.569 61.151 67.724 55.169 58.004 53.047 51.729 56.854 47.895 59.18 45.443 62.914 45.283 68.092 45.062 75.217 50.138 81.412 57.183 82.139 66.95 83.148 70.918 76.17 75.693 71.397 83.735 63.355 92.087 54.972 99.988 47.434 100.296 63.826 94.605 75.648 86.6 83.958 78.583 92.28 67.921 98.938 52.885 99.988H47.101C33.078 98.757 22.273 93.176 14.543 85.445 6.814 77.715 1.225 66.916 0 52.887V47.102C0.812 33.583 7.182 22 14.709 14.544 22.682 6.645 33.328 1.089 47.102 0" fill="white"></path></g></svg></g></svg></g></svg></g><defs><mask></mask></defs><mask><g id="SvgjsG2919"><svg viewBox="0 0 395.52 92.6586299774059" height="92.6586299774059" width="395.52"><g><svg viewBox="0 0 622.0973362775221 145.7389939625525" height="92.6586299774059" width="395.52"><g><rect width="13.07750535142762" height="145.7389939625525" x="179.26552372340439" y="0" fill="black" opacity="1" stroke-width="0" stroke="transparent" fill-opacity="1" class="rect-yte-0" rx="1%" id="SvgjsRect2918" data-palette-color="url(#bc65a2c0-aa2d-462c-ba0e-f3e078dccda4)"></rect></g><g transform="matrix(1,0,0,1,226.5773362775221,0.3625348108521109)"><svg viewBox="0 0 395.52 145.0139243408483" height="145.0139243408483" width="395.52"><g id="SvgjsG2917"><svg viewBox="0 0 395.52 145.0139243408483" height="145.0139243408483" width="395.52" id="SvgjsSvg2916"><g><svg viewBox="0 0 395.52 145.0139243408483" height="145.0139243408483" width="395.52"><g transform="matrix(1,0,0,1,0,0)"><svg width="395.52" viewBox="1.71 -35.4 127.77 46.849999999999994" height="145.0139243408483" data-palette-color="url(#bc65a2c0-aa2d-462c-ba0e-f3e078dccda4)"><path d="M25.39-23.19L25.39-20.75 20.41-20.75Q20.97-19.85 21.36-18.77 21.75-17.7 21.75-16.26L21.75-16.26Q21.75-13.77 20.39-12 19.02-10.23 16.78-9.28 14.55-8.33 11.94-8.33L11.94-8.33Q11.69-8.33 11.45-8.33 11.21-8.33 10.96-8.35L10.96-8.35Q10.64-7.84 10.53-7.25 10.42-6.67 10.42-6.15L10.42-6.15Q10.42-5.69 10.47-5.37 10.52-5.05 10.55-5L10.55-5 11.25-4.93Q13.01-4.76 15.2-4.44 17.38-4.13 19.42-3.42 21.46-2.71 22.78-1.42 24.1-0.12 24.1 2L24.1 2Q24.1 4.37 22.36 6.53 20.63 8.69 17.69 10.07 14.75 11.45 11.11 11.45L11.11 11.45Q6.64 11.45 4.17 9.41 1.71 7.37 1.71 4.35L1.71 4.35Q1.71 2.17 3 0.48 4.3-1.22 7.01-1.71L7.01-1.71Q6.74-2.49 6.62-2.83 6.49-3.17 6.49-4L6.49-4Q6.49-4.98 7.09-6.16 7.69-7.35 9.01-8.69L9.01-8.69Q6.52-9.25 4.66-11.22 2.81-13.18 2.81-16.21L2.81-16.21Q2.81-20.14 5.58-22.42 8.35-24.71 12.84-24.71L12.84-24.71Q14.62-24.71 16.15-24.18 17.68-23.66 18.65-23.19L18.65-23.19 25.39-23.19ZM16.99-16.55L16.99-16.55Q16.99-18.14 16.46-19.53 15.92-20.92 14.89-21.79 13.87-22.66 12.35-22.66L12.35-22.66Q10.25-22.66 8.92-21.03 7.59-19.41 7.59-16.5L7.59-16.5Q7.59-13.99 8.79-12.19 9.99-10.4 12.35-10.4L12.35-10.4Q14.6-10.4 15.8-12.21 16.99-14.01 16.99-16.55ZM19.8 3.34L19.8 3.34Q19.8 1.78 18.71 0.93 17.63 0.07 16.02-0.34 14.4-0.76 12.77-0.94 11.13-1.12 10.01-1.34L10.01-1.34Q7.84-0.56 7.02 0.78 6.2 2.12 6.2 3.34L6.2 3.34Q6.2 4.54 6.9 5.9 7.59 7.25 9.05 8.2 10.5 9.16 12.74 9.16L12.74 9.16Q15.14 9.16 16.7 8.2 18.26 7.25 19.03 5.9 19.8 4.54 19.8 3.34ZM37.13-32.35L37.13-32.35Q37.13-31.08 36.25-30.16 35.37-29.25 34.1-29.25L34.1-29.25Q32.83-29.25 31.92-30.16 31-31.08 31-32.35L31-32.35Q31-33.64 31.92-34.52 32.83-35.4 34.1-35.4L34.1-35.4Q35.37-35.4 36.25-34.52 37.13-33.64 37.13-32.35ZM39.69-1.95L39.69 0 27.95 0 27.95-1.95 30.39-2.1Q31.44-2.17 31.44-3.2L31.44-3.2 31.44-21.04 28-21.04 28-22.8 34.1-24.71 36.08-24.71 36.08-3.2Q36.08-2.73 36.39-2.44 36.69-2.15 37.13-2.1L37.13-2.1 39.69-1.95ZM66.79-23.19L66.79-20.75 61.81-20.75Q62.37-19.85 62.76-18.77 63.15-17.7 63.15-16.26L63.15-16.26Q63.15-13.77 61.79-12 60.42-10.23 58.19-9.28 55.95-8.33 53.34-8.33L53.34-8.33Q53.1-8.33 52.85-8.33 52.61-8.33 52.36-8.35L52.36-8.35Q52.05-7.84 51.94-7.25 51.83-6.67 51.83-6.15L51.83-6.15Q51.83-5.69 51.87-5.37 51.92-5.05 51.95-5L51.95-5 52.66-4.93Q54.41-4.76 56.6-4.44 58.78-4.13 60.82-3.42 62.86-2.71 64.18-1.42 65.5-0.12 65.5 2L65.5 2Q65.5 4.37 63.76 6.53 62.03 8.69 59.09 10.07 56.15 11.45 52.51 11.45L52.51 11.45Q48.04 11.45 45.58 9.41 43.11 7.37 43.11 4.35L43.11 4.35Q43.11 2.17 44.4 0.48 45.7-1.22 48.41-1.71L48.41-1.71Q48.14-2.49 48.02-2.83 47.9-3.17 47.9-4L47.9-4Q47.9-4.98 48.49-6.16 49.09-7.35 50.41-8.69L50.41-8.69Q47.92-9.25 46.06-11.22 44.21-13.18 44.21-16.21L44.21-16.21Q44.21-20.14 46.98-22.42 49.75-24.71 54.24-24.71L54.24-24.71Q56.03-24.71 57.55-24.18 59.08-23.66 60.05-23.19L60.05-23.19 66.79-23.19ZM58.39-16.55L58.39-16.55Q58.39-18.14 57.86-19.53 57.32-20.92 56.29-21.79 55.27-22.66 53.75-22.66L53.75-22.66Q51.66-22.66 50.32-21.03 48.99-19.41 48.99-16.5L48.99-16.5Q48.99-13.99 50.19-12.19 51.39-10.4 53.75-10.4L53.75-10.4Q56-10.4 57.2-12.21 58.39-14.01 58.39-16.55ZM61.2 3.34L61.2 3.34Q61.2 1.78 60.11 0.93 59.03 0.07 57.42-0.34 55.81-0.76 54.17-0.94 52.53-1.12 51.41-1.34L51.41-1.34Q49.24-0.56 48.42 0.78 47.6 2.12 47.6 3.34L47.6 3.34Q47.6 4.54 48.3 5.9 48.99 7.25 50.45 8.2 51.9 9.16 54.15 9.16L54.15 9.16Q56.54 9.16 58.1 8.2 59.66 7.25 60.43 5.9 61.2 4.54 61.2 3.34ZM101.9-33.54L101.9-31.4 98.99-31.2Q98.45-31.18 98.2-30.82 97.94-30.47 97.94-30.1L97.94-30.1 97.94-11.11Q97.94-4.96 94.66-2.08 91.37 0.81 85.1 0.81L85.1 0.81Q78.92 0.81 75.91-2.21 72.89-5.22 72.89-11.11L72.89-11.11 72.89-30.1Q72.89-30.47 72.64-30.82 72.38-31.18 71.84-31.2L71.84-31.2 69.18-31.4 69.18-33.54 81.9-33.54 81.9-31.4 79.05-31.2Q78.51-31.18 78.25-30.82 78-30.47 78-30.1L78-30.1 78-12.4Q78-9.47 78.65-7.25 79.31-5.03 81.14-3.78 82.98-2.54 86.44-2.54L86.44-2.54Q89.91-2.54 91.75-3.85 93.6-5.15 94.29-7.4 94.99-9.64 94.99-12.4L94.99-12.4 94.99-30.1Q94.99-30.47 94.71-30.82 94.43-31.18 93.89-31.2L93.89-31.2 91.03-31.4 91.03-33.54 101.9-33.54ZM129.48-12.4L129.48-12.4Q129.48-8.47 127.97-5.54 126.45-2.61 123.62-1 120.79 0.61 116.84 0.61L116.84 0.61Q115.93 0.61 114.89 0.49 113.86 0.37 113.12 0.26 112.39 0.15 112.39 0.15L112.39 0.15 112.39 7.59Q112.39 8.06 112.71 8.33 113.03 8.59 113.49 8.64L113.49 8.64 116.45 8.96 116.45 10.89 104.29 10.89 104.29 8.96 106.68 8.64Q107.73 8.57 107.73 7.59L107.73 7.59 107.73-20.56 104.29-20.56 104.29-22.19 110.44-24.1 112.39-24.1 112.39-21.61Q112.39-21.61 113.01-22.07 113.64-22.53 114.7-23.16 115.76-23.78 117.12-24.24 118.47-24.71 119.94-24.71L119.94-24.71Q122.52-24.71 124.68-23.18 126.85-21.66 128.16-18.9 129.48-16.14 129.48-12.4ZM124.48-11.69L124.48-11.69Q124.48-14.28 123.68-16.43 122.89-18.58 121.34-19.89 119.79-21.19 117.49-21.19L117.49-21.19Q116.25-21.19 115.08-20.83 113.91-20.46 113.15-20.08 112.39-19.7 112.39-19.7L112.39-19.7 112.39-2.49Q112.39-2.49 113.65-2.1 114.91-1.71 116.45-1.71L116.45-1.71Q119.2-1.71 120.97-3.13 122.74-4.54 123.61-6.82 124.48-9.11 124.48-11.69Z" opacity="1" transform="matrix(1,0,0,1,0,0)" fill="black" class="wordmark-text-0" id="SvgjsPath2915"></path></svg></g></svg></g></svg></g></svg></g><g transform="matrix(1,0,0,1,0,0.3625348108521109)"><svg viewBox="0 0 145.03121652071428 145.0139243408483" height="145.0139243408483" width="145.03121652071428"><g><svg xmlns="http://www.w3.org/2000/svg" xmlns:xlink="http://www.w3.org/1999/xlink" version="1.1" x="0" y="0" viewBox="0 0 99.99992306523873 99.988" enable-background="new 0 0 100 100" xml:space="preserve" height="145.0139243408483" width="145.03121652071428" class="icon-icon-0" data-fill-palette-color="accent" id="SvgjsSvg2914"><g fill="black"><path fill-rule="evenodd" clip-rule="evenodd" d="M47.102 0H52.886C61.224 0.642 67.928 2.917 73.876 5.95A977 977 0 0 1 44.623 35.202C41.654 31.356 38.409 28.27 31.402 28.923 24.554 29.561 19.394 35.712 19.337 42.475 19.244 53.575 31.973 59.901 41.318 53.714 43.773 52.089 46.026 49.336 48.259 47.103 54.917 40.444 61.628 33.63 68.256 26.939 73.727 31.866 78.962 37.481 84.452 42.971 85.026 43.545 86.757 44.887 86.766 45.119 86.787 45.622 83.195 48.857 82.799 49.251 78.764 53.286 74.67 57.412 70.569 61.151 67.724 55.169 58.004 53.047 51.729 56.854 47.895 59.18 45.443 62.914 45.283 68.092 45.062 75.217 50.138 81.412 57.183 82.139 66.95 83.148 70.918 76.17 75.693 71.397 83.735 63.355 92.087 54.972 99.988 47.434 100.296 63.826 94.605 75.648 86.6 83.958 78.583 92.28 67.921 98.938 52.885 99.988H47.101C33.078 98.757 22.273 93.176 14.543 85.445 6.814 77.715 1.225 66.916 0 52.887V47.102C0.812 33.583 7.182 22 14.709 14.544 22.682 6.645 33.328 1.089 47.102 0" fill="black"></path></g></svg></g></svg></g></svg></g><defs><mask></mask></defs></svg><rect width="395.52" height="92.6586299774059" fill="black" stroke="none" visibility="hidden"></rect></g></mask></svg><rect width="395.52" height="92.6586299774059" fill="black" stroke="none" visibility="hidden"></rect></g></mask><linearGradient x1="0" x2="1" y1="0.578" y2="0.595" id="970d3a48-4b60-4968-8902-15be4740b516"><stop stop-color="#6ee2f5" offset="0"></stop><stop stop-color="#6454f0" offset="1"></stop></linearGradient><rect width="395.52" height="92.6586299774059" fill="#000000" mask="url(#c475f70d-1a19-431e-b19d-a0493972c237)" data-fill-palette-color="accent"></rect></svg><rect width="395.52" height="92.6586299774059" fill="none" stroke="none" visibility="hidden"></rect></g></svg></g></svg>