<svg xmlns="http://www.w3.org/2000/svg" version="1.1" xmlns:xlink="http://www.w3.org/1999/xlink" xmlns:svgjs="http://svgjs.dev/svgjs" width="1500" height="1500" viewBox="0 0 1500 1500"><rect width="1500" height="1500" fill="#ffffff"></rect><g transform="matrix(0.6666666666666666,0,0,0.6666666666666666,249.39393939393938,435.99032258064517)"><svg viewBox="0 0 396 248" data-background-color="#2e024e" preserveAspectRatio="xMidYMid meet" height="939" width="1500" xmlns="http://www.w3.org/2000/svg" xmlns:xlink="http://www.w3.org/1999/xlink"><g id="tight-bounds" transform="matrix(1,0,0,1,0.2400000000000091,0.4000000000000057)"><svg viewBox="0 0 395.52 247.2" height="247.2" width="395.52"><rect width="395.52" height="247.2" fill="#000000" mask="url(#c91970bd-4242-4e45-9cb5-ec4a641cc268)" data-fill-palette-color="tertiary"></rect><g><svg></svg></g><g><svg viewBox="0 0 395.52 247.2" height="247.2" width="395.52"><g transform="matrix(1,0,0,1,39.55199999999999,85.61320059045053)"><svg viewBox="0 0 316.416 75.97359881909892" height="75.97359881909892" width="316.416"><g><svg viewBox="0 0 521.7060774272235 125.26512005695551" height="75.97359881909892" width="316.416"><g></g><g transform="matrix(1,0,0,1,205.29007742722342,5.265178295456693)"><svg viewBox="0 0 316.416 114.73476346604212" height="114.73476346604212" width="316.416"><g id="textblocktransform"><svg viewBox="0 0 316.416 114.73476346604212" height="114.73476346604212" width="316.416" id="textblock"><g><svg viewBox="0 0 316.416 114.73476346604212" height="114.73476346604212" width="316.416"><g transform="matrix(1,0,0,1,0,0)"><svg width="316.416" viewBox="2.2 -34.3 128.09 46.45" height="114.73476346604212" data-palette-color="url(#6e20f2f2-9b34-4666-b13e-d50de2f52984)"></svg></g></svg></g></svg></g></svg></g><g><svg viewBox="0 0 140.77093001156115 125.26512005695551" height="125.26512005695551" width="140.77093001156115"><g><svg xmlns="http://www.w3.org/2000/svg" xmlns:xlink="http://www.w3.org/1999/xlink" version="1.1" x="0" y="0" viewBox="9.371 14.583741704160966 80.25800000000001 71.41764286636074" enable-background="new 0 0 100 100" xml:space="preserve" height="125.26512005695551" width="140.77093001156115" class="icon-icon-0" data-fill-palette-color="accent" id="icon-0"><g fill="#ffffff" data-fill-palette-color="accent"><g fill="#ffffff" data-fill-palette-color="accent"><g fill="#ffffff" data-fill-palette-color="accent"><g fill="#ffffff" data-fill-palette-color="accent"><circle cx="42.692" cy="80.595" r="3.9" fill="#000000" data-fill-palette-color="accent"></circle></g><g fill="#ffffff" data-fill-palette-color="accent"><path d="M47.234 63.9C44.979 61.842 43.24 55.321 49.75 52.923 55.957 50.636 63.275 65.044 51.58 68.017 38.977 71.221 33.517 48.878 45.405 40.574 76.531 18.832 41.859-0.059 45.281 30.74 51.057 73.146 51.763 72.633 51.979 78.524 52.129 82.617 49.554 85.856 45.209 84.941 43.8 84.644 45.507 83.375 45.438 83.34 44.066 82.654 42.422 84.487 41.321 84.255 50.011 89.058 53.077 82.917 52.828 78.309 52.655 75.112 47.724 30.943 47.724 29.648 47.724 16.384 55.696 17.985 55.01 24.159S40.145 40.573 36.486 48.12 33.602 65.695 44.948 69.389C56.186 73.048 66.706 60.241 61.217 53.38 52.911 42.998 37.204 56.124 47.234 63.9" fill="#000000" data-fill-palette-color="accent"></path></g></g><g fill="#ffffff" data-fill-palette-color="accent"><path d="M38.43 27.664H21.825A1.384 1.384 0 1 1 21.825 24.896H38.43A1.384 1.384 0 1 1 38.43 27.664" fill="#000000" data-fill-palette-color="accent"></path></g><g fill="#ffffff" data-fill-palette-color="accent"><path d="M77.175 27.664H63.337A1.384 1.384 0 1 1 63.337 24.896H77.174A1.384 1.384 0 0 1 77.175 27.664" fill="#000000" data-fill-palette-color="accent"></path></g><g fill="#ffffff" data-fill-palette-color="accent"><path d="M34.279 40.117H14.906A1.384 1.384 0 1 1 14.906 37.349H34.278A1.384 1.384 0 0 1 34.279 40.117" fill="#000000" data-fill-palette-color="accent"></path></g><g fill="#ffffff" data-fill-palette-color="accent"><path d="M84.094 40.117H55.035A1.384 1.384 0 1 1 55.035 37.349H84.094A1.384 1.384 0 1 1 84.094 40.117" fill="#000000" data-fill-palette-color="accent"></path></g><g fill="#ffffff" data-fill-palette-color="accent"><path d="M27.36 52.571H10.755A1.384 1.384 0 1 1 10.755 49.803H27.36A1.384 1.384 0 1 1 27.36 52.571" fill="#000000" data-fill-palette-color="accent"></path></g><g fill="#ffffff" data-fill-palette-color="accent"><path d="M88.245 52.571H67.489A1.384 1.384 0 1 1 67.489 49.803H88.245A1.384 1.384 0 1 1 88.245 52.571" fill="#000000" data-fill-palette-color="accent"></path></g><g fill="#ffffff" data-fill-palette-color="accent"><path d="M30.128 65.025H16.29A1.384 1.384 0 1 1 16.29 62.257H30.127A1.384 1.384 0 0 1 30.128 65.025" fill="#000000" data-fill-palette-color="accent"></path></g><g fill="#ffffff" data-fill-palette-color="accent"><path d="M84.094 65.025H67.489A1.384 1.384 0 1 1 67.489 62.257H84.094A1.384 1.384 0 1 1 84.094 65.025" fill="#000000" data-fill-palette-color="accent"></path></g><g fill="#ffffff" data-fill-palette-color="accent"><path d="M32.895 77.479H23.209A1.384 1.384 0 1 1 23.209 74.711H32.895A1.384 1.384 0 1 1 32.895 77.479" fill="#000000" data-fill-palette-color="accent"></path></g><g fill="#ffffff" data-fill-palette-color="accent"><path d="M75.791 77.479H60.57A1.384 1.384 0 1 1 60.57 74.711H75.791A1.384 1.384 0 1 1 75.791 77.479" fill="#000000" data-fill-palette-color="accent"></path></g></g></g></svg></g></svg></g></svg></g></svg></g><g><path d="M0 247.2v-247.2h395.52v247.2zM389.245 240.925v-234.65h-382.97v234.65z" fill="#000000" fill-rule="nonzero" stroke="none" stroke-width="1" stroke-linecap="butt" stroke-linejoin="miter" stroke-miterlimit="10" stroke-dasharray="" stroke-dashoffset="0" font-family="none" font-weight="none" font-size="none" text-anchor="none" style="mix-blend-mode: normal" data-fill-palette-color="tertiary"></path></g></svg></g><defs></defs><mask id="f28b0ecf-78a0-4af3-9d68-0b4875e3ccea"><g id="SvgjsG2332"><svg viewBox="0 0 395.52 247.2" height="247.2" width="395.52"><g><svg></svg></g><g><svg viewBox="0 0 395.52 247.2" height="247.2" width="395.52"><g transform="matrix(1,0,0,1,39.55199999999999,85.61320059045053)"><svg viewBox="0 0 316.416 75.97359881909892" height="75.97359881909892" width="316.416"><g><svg viewBox="0 0 521.7060774272235 125.26512005695551" height="75.97359881909892" width="316.416"><g><rect width="10.346899375643575" height="115.30843728337233" x="167.8570540315705" y="4.978341386791591" fill="white" opacity="1" stroke-width="0" stroke="transparent" fill-opacity="1" class="rect-yte-0" rx="1%" id="SvgjsRect2331" data-palette-color="url(#6e20f2f2-9b34-4666-b13e-d50de2f52984)"></rect></g><g transform="matrix(1,0,0,1,205.29007742722342,5.265178295456693)"><svg viewBox="0 0 316.416 114.73476346604212" height="114.73476346604212" width="316.416"><g id="SvgjsG2330"><svg viewBox="0 0 316.416 114.73476346604212" height="114.73476346604212" width="316.416" id="SvgjsSvg2329"><g><svg viewBox="0 0 316.416 114.73476346604212" height="114.73476346604212" width="316.416"><g transform="matrix(1,0,0,1,0,0)"><svg width="316.416" viewBox="2.2 -34.3 128.09 46.45" height="114.73476346604212" data-palette-color="url(#6e20f2f2-9b34-4666-b13e-d50de2f52984)"><path d="M14.7 12Q12.15 12 9.68 11.3 7.2 10.6 6.15 10L6.15 10 7.35 5Q10.65 7.15 14.55 7.15L14.55 7.15Q17.55 7.15 19.6 5.7 21.65 4.25 21.7 0.05L21.7 0.05 21.7-4.05Q20.65-2.1 18.3-0.8 15.95 0.5 13.1 0.5L13.1 0.5Q10.1 0.5 7.6-0.98 5.1-2.45 3.65-5.2 2.2-7.95 2.2-11.6L2.2-11.6Q2.2-15.1 3.58-17.82 4.95-20.55 7.5-22.05 10.05-23.55 13.45-23.55L13.45-23.55Q15.45-23.55 17.2-22.85 18.95-22.15 20.18-21.13 21.4-20.1 21.8-19.1L21.8-19.1 21.9-22.95 27-22.95 27-0.15Q27 5.7 24 8.85 21 12 14.7 12L14.7 12ZM14.6-4.05Q17.45-4.05 19.4-6.03 21.35-8 21.35-11.2L21.35-11.2 21.35-11.55Q21.35-13.7 20.45-15.4 19.55-17.1 18-18.05 16.45-19 14.6-19L14.6-19Q11.4-19 9.65-16.93 7.9-14.85 7.9-11.55L7.9-11.55Q7.9-8.2 9.63-6.13 11.35-4.05 14.6-4.05L14.6-4.05ZM34.3 0L34.3-22.95 39.9-22.95 39.9 0 34.3 0ZM37.05-27.25Q35.5-27.25 34.45-28.3 33.4-29.35 33.4-30.9L33.4-30.9Q33.4-32.3 34.45-33.3 35.5-34.3 37.05-34.3L37.05-34.3Q38.55-34.3 39.6-33.3 40.65-32.3 40.65-30.9L40.65-30.9Q40.65-29.35 39.62-28.3 38.6-27.25 37.05-27.25L37.05-27.25ZM58.55 12Q55.99 12 53.52 11.3 51.05 10.6 49.99 10L49.99 10 51.2 5Q54.49 7.15 58.39 7.15L58.39 7.15Q61.39 7.15 63.45 5.7 65.5 4.25 65.55 0.05L65.55 0.05 65.55-4.05Q64.5-2.1 62.14-0.8 59.8 0.5 56.95 0.5L56.95 0.5Q53.95 0.5 51.45-0.98 48.95-2.45 47.49-5.2 46.05-7.95 46.05-11.6L46.05-11.6Q46.05-15.1 47.42-17.82 48.8-20.55 51.34-22.05 53.89-23.55 57.3-23.55L57.3-23.55Q59.3-23.55 61.05-22.85 62.8-22.15 64.02-21.13 65.25-20.1 65.64-19.1L65.64-19.1 65.75-22.95 70.84-22.95 70.84-0.15Q70.84 5.7 67.84 8.85 64.84 12 58.55 12L58.55 12ZM58.45-4.05Q61.3-4.05 63.25-6.03 65.19-8 65.19-11.2L65.19-11.2 65.19-11.55Q65.19-13.7 64.3-15.4 63.39-17.1 61.84-18.05 60.3-19 58.45-19L58.45-19Q55.24-19 53.49-16.93 51.74-14.85 51.74-11.55L51.74-11.55Q51.74-8.2 53.47-6.13 55.2-4.05 58.45-4.05L58.45-4.05ZM85.69 0.5Q80.94 0.5 79.17-2.3 77.39-5.1 77.39-10.1L77.39-10.1 77.39-22.95 82.79-22.95 82.79-11.45Q82.79-8.6 83.12-7.03 83.44-5.45 84.42-4.7 85.39-3.95 87.34-3.95L87.34-3.95Q88.74-3.95 90.04-4.75 91.34-5.55 92.17-6.93 92.99-8.3 92.99-9.95L92.99-9.95 92.99-22.95 98.34-22.95 98.34 0 93.94 0 93.34-3.35Q92.09-1.4 90.22-0.45 88.34 0.5 85.69 0.5L85.69 0.5ZM105.64 12.15L105.64-22.95 110.84-22.95 110.84-18.7Q113.59-23.55 119.44-23.55L119.44-23.55Q124.29-23.55 127.29-20.48 130.29-17.4 130.29-11.6L130.29-11.6Q130.29-8 128.81-5.25 127.34-2.5 124.81-1 122.29 0.5 119.19 0.5L119.19 0.5Q116.29 0.5 114.16-0.53 112.04-1.55 110.84-3.45L110.84-3.45 110.89 12.15 105.64 12.15ZM117.94-4.05Q121.19-4.05 122.94-6.13 124.69-8.2 124.69-11.45L124.69-11.45Q124.69-14.85 122.97-16.88 121.24-18.9 117.94-18.9L117.94-18.9Q116.14-18.9 114.56-18.03 112.99-17.15 112.06-15.53 111.14-13.9 111.14-11.75L111.14-11.75 111.14-11.4Q111.14-9.25 112.06-7.58 112.99-5.9 114.54-4.98 116.09-4.05 117.94-4.05L117.94-4.05Z" opacity="1" transform="matrix(1,0,0,1,0,0)" fill="white" class="wordmark-text-0" id="SvgjsPath2328"></path></svg></g></svg></g></svg></g></svg></g><g><svg viewBox="0 0 140.77093001156115 125.26512005695551" height="125.26512005695551" width="140.77093001156115"><g><svg xmlns="http://www.w3.org/2000/svg" xmlns:xlink="http://www.w3.org/1999/xlink" version="1.1" x="0" y="0" viewBox="9.371 14.583741704160966 80.25800000000001 71.41764286636074" enable-background="new 0 0 100 100" xml:space="preserve" height="125.26512005695551" width="140.77093001156115" class="icon-icon-0" data-fill-palette-color="accent" id="SvgjsSvg2327"><g fill="black"><g fill="black"><g fill="black"><g fill="black"><circle cx="42.692" cy="80.595" r="3.9" fill="black"></circle></g><g fill="black"><path d="M47.234 63.9C44.979 61.842 43.24 55.321 49.75 52.923 55.957 50.636 63.275 65.044 51.58 68.017 38.977 71.221 33.517 48.878 45.405 40.574 76.531 18.832 41.859-0.059 45.281 30.74 51.057 73.146 51.763 72.633 51.979 78.524 52.129 82.617 49.554 85.856 45.209 84.941 43.8 84.644 45.507 83.375 45.438 83.34 44.066 82.654 42.422 84.487 41.321 84.255 50.011 89.058 53.077 82.917 52.828 78.309 52.655 75.112 47.724 30.943 47.724 29.648 47.724 16.384 55.696 17.985 55.01 24.159S40.145 40.573 36.486 48.12 33.602 65.695 44.948 69.389C56.186 73.048 66.706 60.241 61.217 53.38 52.911 42.998 37.204 56.124 47.234 63.9" fill="black"></path></g></g><g fill="black"><path d="M38.43 27.664H21.825A1.384 1.384 0 1 1 21.825 24.896H38.43A1.384 1.384 0 1 1 38.43 27.664" fill="black"></path></g><g fill="black"><path d="M77.175 27.664H63.337A1.384 1.384 0 1 1 63.337 24.896H77.174A1.384 1.384 0 0 1 77.175 27.664" fill="black"></path></g><g fill="black"><path d="M34.279 40.117H14.906A1.384 1.384 0 1 1 14.906 37.349H34.278A1.384 1.384 0 0 1 34.279 40.117" fill="black"></path></g><g fill="black"><path d="M84.094 40.117H55.035A1.384 1.384 0 1 1 55.035 37.349H84.094A1.384 1.384 0 1 1 84.094 40.117" fill="black"></path></g><g fill="black"><path d="M27.36 52.571H10.755A1.384 1.384 0 1 1 10.755 49.803H27.36A1.384 1.384 0 1 1 27.36 52.571" fill="black"></path></g><g fill="black"><path d="M88.245 52.571H67.489A1.384 1.384 0 1 1 67.489 49.803H88.245A1.384 1.384 0 1 1 88.245 52.571" fill="black"></path></g><g fill="black"><path d="M30.128 65.025H16.29A1.384 1.384 0 1 1 16.29 62.257H30.127A1.384 1.384 0 0 1 30.128 65.025" fill="black"></path></g><g fill="black"><path d="M84.094 65.025H67.489A1.384 1.384 0 1 1 67.489 62.257H84.094A1.384 1.384 0 1 1 84.094 65.025" fill="black"></path></g><g fill="black"><path d="M32.895 77.479H23.209A1.384 1.384 0 1 1 23.209 74.711H32.895A1.384 1.384 0 1 1 32.895 77.479" fill="black"></path></g><g fill="black"><path d="M75.791 77.479H60.57A1.384 1.384 0 1 1 60.57 74.711H75.791A1.384 1.384 0 1 1 75.791 77.479" fill="black"></path></g></g></g></svg></g></svg></g></svg></g></svg></g><g><path d="M0 247.2v-247.2h395.52v247.2zM389.245 240.925v-234.65h-382.97v234.65z" fill="black" fill-rule="nonzero" stroke="none" stroke-width="1" stroke-linecap="butt" stroke-linejoin="miter" stroke-miterlimit="10" stroke-dasharray="" stroke-dashoffset="0" font-family="none" font-weight="none" font-size="none" text-anchor="none" style="mix-blend-mode: normal"></path></g></svg></g><defs><mask></mask></defs></svg><rect width="395.52" height="247.2" fill="black" stroke="none" visibility="hidden"></rect></g></mask><linearGradient x1="0.054" x2="0.941" y1="0.5" y2="0.5" id="6e20f2f2-9b34-4666-b13e-d50de2f52984"><stop stop-color="#eaa79c" offset="0"></stop><stop stop-color="#f2e8cb" offset="0.498"></stop><stop stop-color="#eaa79c" offset="1"></stop></linearGradient><rect width="395.52" height="247.2" fill="#000000" mask="url(#f28b0ecf-78a0-4af3-9d68-0b4875e3ccea)" data-fill-palette-color="primary"></rect><mask id="c91970bd-4242-4e45-9cb5-ec4a641cc268"><g id="SvgjsG2342"><svg viewBox="0 0 395.52 247.2" height="247.2" width="395.52"><g><svg></svg></g><g><svg viewBox="0 0 395.52 247.2" height="247.2" width="395.52"><g transform="matrix(1,0,0,1,39.55199999999999,85.61320059045053)"><svg viewBox="0 0 316.416 75.97359881909892" height="75.97359881909892" width="316.416"><g><svg viewBox="0 0 521.7060774272235 125.26512005695551" height="75.97359881909892" width="316.416"><g></g><g transform="matrix(1,0,0,1,205.29007742722342,5.265178295456693)"><svg viewBox="0 0 316.416 114.73476346604212" height="114.73476346604212" width="316.416"><g id="SvgjsG2341"><svg viewBox="0 0 316.416 114.73476346604212" height="114.73476346604212" width="316.416" id="SvgjsSvg2340"><g><svg viewBox="0 0 316.416 114.73476346604212" height="114.73476346604212" width="316.416"><g transform="matrix(1,0,0,1,0,0)"><svg width="316.416" viewBox="2.2 -34.3 128.09 46.45" height="114.73476346604212" data-palette-color="url(#6e20f2f2-9b34-4666-b13e-d50de2f52984)"></svg></g></svg></g></svg></g></svg></g><g><svg viewBox="0 0 140.77093001156115 125.26512005695551" height="125.26512005695551" width="140.77093001156115"><g><svg xmlns="http://www.w3.org/2000/svg" xmlns:xlink="http://www.w3.org/1999/xlink" version="1.1" x="0" y="0" viewBox="9.371 14.583741704160966 80.25800000000001 71.41764286636074" enable-background="new 0 0 100 100" xml:space="preserve" height="125.26512005695551" width="140.77093001156115" class="icon-icon-0" data-fill-palette-color="accent" id="SvgjsSvg2339"><g fill="black"><g fill="black"><g fill="black"><g fill="black"><circle cx="42.692" cy="80.595" r="3.9" fill="black"></circle></g><g fill="black"><path d="M47.234 63.9C44.979 61.842 43.24 55.321 49.75 52.923 55.957 50.636 63.275 65.044 51.58 68.017 38.977 71.221 33.517 48.878 45.405 40.574 76.531 18.832 41.859-0.059 45.281 30.74 51.057 73.146 51.763 72.633 51.979 78.524 52.129 82.617 49.554 85.856 45.209 84.941 43.8 84.644 45.507 83.375 45.438 83.34 44.066 82.654 42.422 84.487 41.321 84.255 50.011 89.058 53.077 82.917 52.828 78.309 52.655 75.112 47.724 30.943 47.724 29.648 47.724 16.384 55.696 17.985 55.01 24.159S40.145 40.573 36.486 48.12 33.602 65.695 44.948 69.389C56.186 73.048 66.706 60.241 61.217 53.38 52.911 42.998 37.204 56.124 47.234 63.9" fill="black"></path></g></g><g fill="black"><path d="M38.43 27.664H21.825A1.384 1.384 0 1 1 21.825 24.896H38.43A1.384 1.384 0 1 1 38.43 27.664" fill="black"></path></g><g fill="black"><path d="M77.175 27.664H63.337A1.384 1.384 0 1 1 63.337 24.896H77.174A1.384 1.384 0 0 1 77.175 27.664" fill="black"></path></g><g fill="black"><path d="M34.279 40.117H14.906A1.384 1.384 0 1 1 14.906 37.349H34.278A1.384 1.384 0 0 1 34.279 40.117" fill="black"></path></g><g fill="black"><path d="M84.094 40.117H55.035A1.384 1.384 0 1 1 55.035 37.349H84.094A1.384 1.384 0 1 1 84.094 40.117" fill="black"></path></g><g fill="black"><path d="M27.36 52.571H10.755A1.384 1.384 0 1 1 10.755 49.803H27.36A1.384 1.384 0 1 1 27.36 52.571" fill="black"></path></g><g fill="black"><path d="M88.245 52.571H67.489A1.384 1.384 0 1 1 67.489 49.803H88.245A1.384 1.384 0 1 1 88.245 52.571" fill="black"></path></g><g fill="black"><path d="M30.128 65.025H16.29A1.384 1.384 0 1 1 16.29 62.257H30.127A1.384 1.384 0 0 1 30.128 65.025" fill="black"></path></g><g fill="black"><path d="M84.094 65.025H67.489A1.384 1.384 0 1 1 67.489 62.257H84.094A1.384 1.384 0 1 1 84.094 65.025" fill="black"></path></g><g fill="black"><path d="M32.895 77.479H23.209A1.384 1.384 0 1 1 23.209 74.711H32.895A1.384 1.384 0 1 1 32.895 77.479" fill="black"></path></g><g fill="black"><path d="M75.791 77.479H60.57A1.384 1.384 0 1 1 60.57 74.711H75.791A1.384 1.384 0 1 1 75.791 77.479" fill="black"></path></g></g></g></svg></g></svg></g></svg></g></svg></g><g><path d="M0 247.2v-247.2h395.52v247.2zM389.245 240.925v-234.65h-382.97v234.65z" fill="white" fill-rule="nonzero" stroke="none" stroke-width="1" stroke-linecap="butt" stroke-linejoin="miter" stroke-miterlimit="10" stroke-dasharray="" stroke-dashoffset="0" font-family="none" font-weight="none" font-size="none" text-anchor="none" style="mix-blend-mode: normal"></path></g></svg></g><defs><mask></mask></defs><mask><g id="SvgjsG2338"><svg viewBox="0 0 395.52 247.2" height="247.2" width="395.52"><g><svg></svg></g><g><svg viewBox="0 0 395.52 247.2" height="247.2" width="395.52"><g transform="matrix(1,0,0,1,39.55199999999999,85.61320059045053)"><svg viewBox="0 0 316.416 75.97359881909892" height="75.97359881909892" width="316.416"><g><svg viewBox="0 0 521.7060774272235 125.26512005695551" height="75.97359881909892" width="316.416"><g><rect width="10.346899375643575" height="115.30843728337233" x="167.8570540315705" y="4.978341386791591" fill="black" opacity="1" stroke-width="0" stroke="transparent" fill-opacity="1" class="rect-yte-0" rx="1%" id="SvgjsRect2337" data-palette-color="url(#6e20f2f2-9b34-4666-b13e-d50de2f52984)"></rect></g><g transform="matrix(1,0,0,1,205.29007742722342,5.265178295456693)"><svg viewBox="0 0 316.416 114.73476346604212" height="114.73476346604212" width="316.416"><g id="SvgjsG2336"><svg viewBox="0 0 316.416 114.73476346604212" height="114.73476346604212" width="316.416" id="SvgjsSvg2335"><g><svg viewBox="0 0 316.416 114.73476346604212" height="114.73476346604212" width="316.416"><g transform="matrix(1,0,0,1,0,0)"><svg width="316.416" viewBox="2.2 -34.3 128.09 46.45" height="114.73476346604212" data-palette-color="url(#6e20f2f2-9b34-4666-b13e-d50de2f52984)"><path d="M14.7 12Q12.15 12 9.68 11.3 7.2 10.6 6.15 10L6.15 10 7.35 5Q10.65 7.15 14.55 7.15L14.55 7.15Q17.55 7.15 19.6 5.7 21.65 4.25 21.7 0.05L21.7 0.05 21.7-4.05Q20.65-2.1 18.3-0.8 15.95 0.5 13.1 0.5L13.1 0.5Q10.1 0.5 7.6-0.98 5.1-2.45 3.65-5.2 2.2-7.95 2.2-11.6L2.2-11.6Q2.2-15.1 3.58-17.82 4.95-20.55 7.5-22.05 10.05-23.55 13.45-23.55L13.45-23.55Q15.45-23.55 17.2-22.85 18.95-22.15 20.18-21.13 21.4-20.1 21.8-19.1L21.8-19.1 21.9-22.95 27-22.95 27-0.15Q27 5.7 24 8.85 21 12 14.7 12L14.7 12ZM14.6-4.05Q17.45-4.05 19.4-6.03 21.35-8 21.35-11.2L21.35-11.2 21.35-11.55Q21.35-13.7 20.45-15.4 19.55-17.1 18-18.05 16.45-19 14.6-19L14.6-19Q11.4-19 9.65-16.93 7.9-14.85 7.9-11.55L7.9-11.55Q7.9-8.2 9.63-6.13 11.35-4.05 14.6-4.05L14.6-4.05ZM34.3 0L34.3-22.95 39.9-22.95 39.9 0 34.3 0ZM37.05-27.25Q35.5-27.25 34.45-28.3 33.4-29.35 33.4-30.9L33.4-30.9Q33.4-32.3 34.45-33.3 35.5-34.3 37.05-34.3L37.05-34.3Q38.55-34.3 39.6-33.3 40.65-32.3 40.65-30.9L40.65-30.9Q40.65-29.35 39.62-28.3 38.6-27.25 37.05-27.25L37.05-27.25ZM58.55 12Q55.99 12 53.52 11.3 51.05 10.6 49.99 10L49.99 10 51.2 5Q54.49 7.15 58.39 7.15L58.39 7.15Q61.39 7.15 63.45 5.7 65.5 4.25 65.55 0.05L65.55 0.05 65.55-4.05Q64.5-2.1 62.14-0.8 59.8 0.5 56.95 0.5L56.95 0.5Q53.95 0.5 51.45-0.98 48.95-2.45 47.49-5.2 46.05-7.95 46.05-11.6L46.05-11.6Q46.05-15.1 47.42-17.82 48.8-20.55 51.34-22.05 53.89-23.55 57.3-23.55L57.3-23.55Q59.3-23.55 61.05-22.85 62.8-22.15 64.02-21.13 65.25-20.1 65.64-19.1L65.64-19.1 65.75-22.95 70.84-22.95 70.84-0.15Q70.84 5.7 67.84 8.85 64.84 12 58.55 12L58.55 12ZM58.45-4.05Q61.3-4.05 63.25-6.03 65.19-8 65.19-11.2L65.19-11.2 65.19-11.55Q65.19-13.7 64.3-15.4 63.39-17.1 61.84-18.05 60.3-19 58.45-19L58.45-19Q55.24-19 53.49-16.93 51.74-14.85 51.74-11.55L51.74-11.55Q51.74-8.2 53.47-6.13 55.2-4.05 58.45-4.05L58.45-4.05ZM85.69 0.5Q80.94 0.5 79.17-2.3 77.39-5.1 77.39-10.1L77.39-10.1 77.39-22.95 82.79-22.95 82.79-11.45Q82.79-8.6 83.12-7.03 83.44-5.45 84.42-4.7 85.39-3.95 87.34-3.95L87.34-3.95Q88.74-3.95 90.04-4.75 91.34-5.55 92.17-6.93 92.99-8.3 92.99-9.95L92.99-9.95 92.99-22.95 98.34-22.95 98.34 0 93.94 0 93.34-3.35Q92.09-1.4 90.22-0.45 88.34 0.5 85.69 0.5L85.69 0.5ZM105.64 12.15L105.64-22.95 110.84-22.95 110.84-18.7Q113.59-23.55 119.44-23.55L119.44-23.55Q124.29-23.55 127.29-20.48 130.29-17.4 130.29-11.6L130.29-11.6Q130.29-8 128.81-5.25 127.34-2.5 124.81-1 122.29 0.5 119.19 0.5L119.19 0.5Q116.29 0.5 114.16-0.53 112.04-1.55 110.84-3.45L110.84-3.45 110.89 12.15 105.64 12.15ZM117.94-4.05Q121.19-4.05 122.94-6.13 124.69-8.2 124.69-11.45L124.69-11.45Q124.69-14.85 122.97-16.88 121.24-18.9 117.94-18.9L117.94-18.9Q116.14-18.9 114.56-18.03 112.99-17.15 112.06-15.53 111.14-13.9 111.14-11.75L111.14-11.75 111.14-11.4Q111.14-9.25 112.06-7.58 112.99-5.9 114.54-4.98 116.09-4.05 117.94-4.05L117.94-4.05Z" opacity="1" transform="matrix(1,0,0,1,0,0)" fill="black" class="wordmark-text-0" id="SvgjsPath2334"></path></svg></g></svg></g></svg></g></svg></g><g><svg viewBox="0 0 140.77093001156115 125.26512005695551" height="125.26512005695551" width="140.77093001156115"><g><svg xmlns="http://www.w3.org/2000/svg" xmlns:xlink="http://www.w3.org/1999/xlink" version="1.1" x="0" y="0" viewBox="9.371 14.583741704160966 80.25800000000001 71.41764286636074" enable-background="new 0 0 100 100" xml:space="preserve" height="125.26512005695551" width="140.77093001156115" class="icon-icon-0" data-fill-palette-color="accent" id="SvgjsSvg2333"><g fill="black"><g fill="black"><g fill="black"><g fill="black"><circle cx="42.692" cy="80.595" r="3.9" fill="black"></circle></g><g fill="black"><path d="M47.234 63.9C44.979 61.842 43.24 55.321 49.75 52.923 55.957 50.636 63.275 65.044 51.58 68.017 38.977 71.221 33.517 48.878 45.405 40.574 76.531 18.832 41.859-0.059 45.281 30.74 51.057 73.146 51.763 72.633 51.979 78.524 52.129 82.617 49.554 85.856 45.209 84.941 43.8 84.644 45.507 83.375 45.438 83.34 44.066 82.654 42.422 84.487 41.321 84.255 50.011 89.058 53.077 82.917 52.828 78.309 52.655 75.112 47.724 30.943 47.724 29.648 47.724 16.384 55.696 17.985 55.01 24.159S40.145 40.573 36.486 48.12 33.602 65.695 44.948 69.389C56.186 73.048 66.706 60.241 61.217 53.38 52.911 42.998 37.204 56.124 47.234 63.9" fill="black"></path></g></g><g fill="black"><path d="M38.43 27.664H21.825A1.384 1.384 0 1 1 21.825 24.896H38.43A1.384 1.384 0 1 1 38.43 27.664" fill="black"></path></g><g fill="black"><path d="M77.175 27.664H63.337A1.384 1.384 0 1 1 63.337 24.896H77.174A1.384 1.384 0 0 1 77.175 27.664" fill="black"></path></g><g fill="black"><path d="M34.279 40.117H14.906A1.384 1.384 0 1 1 14.906 37.349H34.278A1.384 1.384 0 0 1 34.279 40.117" fill="black"></path></g><g fill="black"><path d="M84.094 40.117H55.035A1.384 1.384 0 1 1 55.035 37.349H84.094A1.384 1.384 0 1 1 84.094 40.117" fill="black"></path></g><g fill="black"><path d="M27.36 52.571H10.755A1.384 1.384 0 1 1 10.755 49.803H27.36A1.384 1.384 0 1 1 27.36 52.571" fill="black"></path></g><g fill="black"><path d="M88.245 52.571H67.489A1.384 1.384 0 1 1 67.489 49.803H88.245A1.384 1.384 0 1 1 88.245 52.571" fill="black"></path></g><g fill="black"><path d="M30.128 65.025H16.29A1.384 1.384 0 1 1 16.29 62.257H30.127A1.384 1.384 0 0 1 30.128 65.025" fill="black"></path></g><g fill="black"><path d="M84.094 65.025H67.489A1.384 1.384 0 1 1 67.489 62.257H84.094A1.384 1.384 0 1 1 84.094 65.025" fill="black"></path></g><g fill="black"><path d="M32.895 77.479H23.209A1.384 1.384 0 1 1 23.209 74.711H32.895A1.384 1.384 0 1 1 32.895 77.479" fill="black"></path></g><g fill="black"><path d="M75.791 77.479H60.57A1.384 1.384 0 1 1 60.57 74.711H75.791A1.384 1.384 0 1 1 75.791 77.479" fill="black"></path></g></g></g></svg></g></svg></g></svg></g></svg></g><g><path d="M0 247.2v-247.2h395.52v247.2zM389.245 240.925v-234.65h-382.97v234.65z" fill="black" fill-rule="nonzero" stroke="none" stroke-width="1" stroke-linecap="butt" stroke-linejoin="miter" stroke-miterlimit="10" stroke-dasharray="" stroke-dashoffset="0" font-family="none" font-weight="none" font-size="none" text-anchor="none" style="mix-blend-mode: normal"></path></g></svg></g><defs><mask></mask></defs></svg><rect width="395.52" height="247.2" fill="black" stroke="none" visibility="hidden"></rect></g></mask></svg><rect width="395.52" height="247.2" fill="black" stroke="none" visibility="hidden"></rect></g></mask><linearGradient x1="0.054" x2="0.941" y1="0.5" y2="0.5" id="d5984dc3-2a0d-4c5a-8991-5a971599e5e9"><stop stop-color="#26282a" offset="0"></stop><stop stop-color="#9e9fa0" offset="0.498"></stop><stop stop-color="#26282a" offset="1"></stop></linearGradient></svg><rect width="395.52" height="247.2" fill="none" stroke="none" visibility="hidden"></rect></g></svg></g></svg>